<?xml version="1.0" standalone="no"?><svg xmlns="http://www.w3.org/2000/svg" viewBox="0 0 1440 320"><path fill="#BEDBFE" fill-opacity="1" d="M0,288L34.3,277.3C68.6,267,137,245,206,202.7C274.3,160,343,96,411,106.7C480,117,549,203,617,218.7C685.7,235,754,181,823,170.7C891.4,160,960,192,1029,197.3C1097.1,203,1166,181,1234,154.7C1302.9,128,1371,96,1406,80L1440,64L1440,320L1405.7,320C1371.4,320,1303,320,1234,320C1165.7,320,1097,320,1029,320C960,320,891,320,823,320C754.3,320,686,320,617,320C548.6,320,480,320,411,320C342.9,320,274,320,206,320C137.1,320,69,320,34,320L0,320Z"></path></svg>